<svg width="66" height="14" viewBox="0 0 66 14" fill="none" xmlns="http://www.w3.org/2000/svg">
<path fill-rule="evenodd" clip-rule="evenodd" d="M16.4151 3.96699C17.2935 3.9671 18.064 4.18368 18.7274 4.6161C19.3971 5.04255 19.9174 5.63611 20.2861 6.39763C20.6607 7.15285 20.8477 8.01792 20.8477 8.99231C20.8477 9.96706 20.6609 10.8333 20.2861 11.5888C19.9174 12.3441 19.397 12.9351 18.7274 13.3615C18.0641 13.7876 17.2932 13.9999 16.4151 14C15.5367 14 14.7618 13.7877 14.0922 13.3615C13.4287 12.9351 12.9083 12.3441 12.5335 11.5888C12.1649 10.8333 11.9808 9.96706 11.9808 8.99231C11.9808 8.01794 12.1651 7.15284 12.5335 6.39763C12.9083 5.63613 13.4287 5.04255 14.0922 4.6161C14.7619 4.18356 15.5365 3.96699 16.4151 3.96699ZM16.4151 5.04473C15.4321 5.04473 14.6447 5.40808 14.0549 6.13305C13.4715 6.85786 13.1788 7.81088 13.1787 8.99231C13.1787 10.1681 13.4712 11.1196 14.0549 11.8445C14.6386 12.5632 15.426 12.9223 16.4151 12.9223C17.4038 12.9221 18.1901 12.5629 18.7736 11.8445C19.3573 11.1196 19.6498 10.1681 19.6498 8.99231C19.6497 7.81675 19.3572 6.86673 18.7736 6.14187C18.19 5.41097 17.404 5.04489 16.4151 5.04473Z" fill="black"/>
<path fill-rule="evenodd" clip-rule="evenodd" d="M41.3542 3.96699C42.239 3.96699 43.0081 4.18083 43.6594 4.60728C44.3102 5.02753 44.8138 5.61175 45.1701 6.36059C45.5264 7.10383 45.705 7.95743 45.705 8.92V9.28512H38.1746C38.1992 10.3572 38.5001 11.2318 39.0775 11.908C39.655 12.5843 40.4396 12.9223 41.4288 12.9223C42.166 12.9222 42.7932 12.7392 43.3092 12.3737C43.8312 12.0082 44.1787 11.5232 44.3507 10.9202H45.5397C45.4108 11.5353 45.1489 12.0749 44.7559 12.5377C44.3689 13.0006 43.8866 13.3614 43.3092 13.6172C42.7379 13.8731 42.1107 14 41.4288 14C40.5133 14 39.7233 13.7834 39.0597 13.3509C38.4025 12.9184 37.8919 12.3273 37.5294 11.5782C37.1733 10.8229 36.9963 9.96063 36.9963 8.99231C36.9963 8.02386 37.1804 7.16175 37.549 6.40645C37.9238 5.64514 38.437 5.04856 39.0881 4.6161C39.7454 4.18374 40.5005 3.96708 41.3542 3.96699ZM41.3542 5.02709C40.4697 5.02721 39.7412 5.32178 39.1699 5.91256C38.5985 6.49741 38.2695 7.2785 38.1835 8.25324H44.516C44.4546 7.28459 44.1356 6.5035 43.558 5.91256C42.9805 5.32165 42.2451 5.02709 41.3542 5.02709Z" fill="black"/>
<path fill-rule="evenodd" clip-rule="evenodd" d="M55.7148 0C56.6916 3.61673e-05 57.542 0.29088 58.267 0.869598C58.9981 1.44829 59.5631 2.2641 59.9625 3.31788C60.3619 4.3657 60.5632 5.59636 60.5632 7.0097C60.5632 8.41699 60.3619 9.64485 59.9625 10.6927C59.5631 11.7403 58.998 12.5535 58.267 13.1322C57.542 13.7108 56.6915 14 55.7148 14C54.7317 14 53.8742 13.7109 53.143 13.1322C52.4182 12.5535 51.8529 11.7403 51.4475 10.6927C51.0481 9.64485 50.8485 8.41699 50.8485 7.0097C50.8485 5.59636 51.0481 4.3657 51.4475 3.31788C51.8529 2.2642 52.4182 1.44831 53.143 0.869598C53.8742 0.290844 54.7317 0 55.7148 0ZM55.7148 1.11478C54.9713 1.11478 54.3234 1.35673 53.7704 1.83797C53.2175 2.31918 52.79 3.00093 52.489 3.88409C52.1879 4.76743 52.0375 5.80959 52.0375 7.0097C52.0375 8.20376 52.1879 9.24313 52.489 10.1265C52.79 11.0035 53.2175 11.6826 53.7704 12.1638C54.3233 12.6449 54.9714 12.8852 55.7148 12.8852C56.4581 12.8852 57.1035 12.645 57.6502 12.1638C58.1969 11.6827 58.62 11.0033 58.921 10.1265C59.2282 9.24313 59.3831 8.20376 59.3831 7.0097C59.3831 5.80959 59.2282 4.76743 58.921 3.88409C58.62 3.00122 58.1968 2.31912 57.6502 1.83797C57.1035 1.35673 56.4581 1.11482 55.7148 1.11478Z" fill="black"/>
<path d="M1.24411 6.28827H9.03223V0.192264H10.2852V13.8095H9.03223V7.40305H1.24411V13.8095H0V0.192264H1.24411V6.28827Z" fill="black"/>
<path d="M32.3415 3.98463C33.2567 3.9848 34.019 4.28382 34.6271 4.88069C35.2351 5.47162 35.5389 6.34361 35.5389 7.49477V13.8095H34.3587V7.49477C34.3587 6.66624 34.1355 6.05551 33.6869 5.66562C33.2386 5.27591 32.6913 5.0819 32.0465 5.08177C31.2907 5.08177 30.6793 5.31374 30.2123 5.77674C29.7454 6.23968 29.5121 6.85431 29.5121 7.62177V13.8095H28.3319V7.38365C28.3318 6.67125 28.1194 6.11068 27.6957 5.70266C27.2779 5.28853 26.7364 5.08177 26.073 5.08177C25.6063 5.08186 25.1757 5.1879 24.7827 5.40103C24.3957 5.61425 24.082 5.92607 23.8425 6.33413C23.6032 6.73589 23.4836 7.21991 23.4835 7.78581V13.8095H22.3033V4.15925H23.4657V5.78556C23.7545 5.19462 24.1664 4.74608 24.7009 4.44148C25.2353 4.13711 25.8034 3.98464 26.4053 3.98463C27.0812 3.98463 27.6717 4.16222 28.1755 4.51556C28.679 4.8688 29.0321 5.31325 29.2348 5.84906C29.4867 5.30698 29.8832 4.86277 30.4238 4.51556C30.9706 4.16222 31.6103 3.98463 32.3415 3.98463Z" fill="black"/>
<path d="M66 13.8095H64.7932V1.46227H64.7754L61.4928 3.6195V2.34068L64.7381 0.192264H66V13.8095Z" fill="black"/>
</svg>
