<svg width="10" height="10" viewBox="0 0 10 10" fill="none" xmlns="http://www.w3.org/2000/svg">
<path d="M5.6 10H4.4V8.8H5.6V10Z" fill="black"/>
<path d="M2.6 8.6H1.4V7.4H2.6V8.6Z" fill="black"/>
<path d="M8.6 8.6H7.4V7.4H8.6V8.6Z" fill="black"/>
<path d="M5.6 3.2H6.8V4.4H8V5.6H6.8V6.8H5.6V8H4.4V6.8H3.2V5.6H2V4.4H3.2V3.2H4.4V2H5.6V3.2Z" fill="black"/>
<path d="M1.2 5.6H0V4.4H1.2V5.6Z" fill="black"/>
<path d="M10 5.6H8.8V4.4H10V5.6Z" fill="black"/>
<path d="M2.6 2.6H1.4V1.4H2.6V2.6Z" fill="black"/>
<path d="M8.6 2.6H7.4V1.4H8.6V2.6Z" fill="black"/>
<path d="M5.6 1.2H4.4V0H5.6V1.2Z" fill="black"/>
</svg>
