<svg width="14" height="14" viewBox="0 0 14 14" fill="none" xmlns="http://www.w3.org/2000/svg">
<path d="M6.99994 10.4999C7.9282 10.4999 8.81844 10.1312 9.47482 9.47482C10.1312 8.81844 10.4999 7.9282 10.4999 6.99994C10.4999 6.07168 10.1312 5.18145 9.47482 4.52507C8.81844 3.86869 7.9282 3.49994 6.99994 3.49994C6.07168 3.49994 5.18145 3.86869 4.52507 4.52507C3.86869 5.18145 3.49994 6.07168 3.49994 6.99994C3.49994 7.9282 3.86869 8.81844 4.52507 9.47482C5.18145 10.1312 6.07168 10.4999 6.99994 10.4999ZM11.9498 2.05007C12.0318 2.13211 12.0779 2.24337 12.0779 2.35938C12.0779 2.47539 12.0318 2.58665 11.9498 2.66869L10.7126 3.90682C10.6719 3.94744 10.6236 3.97965 10.5705 4.00161C10.5174 4.02357 10.4604 4.03485 10.4029 4.03481C10.2868 4.03473 10.1755 3.98853 10.0935 3.90638C10.0529 3.8657 10.0207 3.81742 9.99871 3.7643C9.97675 3.71117 9.96547 3.65424 9.96551 3.59676C9.96559 3.48066 10.0118 3.36935 10.0939 3.28732L11.3312 2.05007C11.4132 1.96805 11.5245 1.92197 11.6405 1.92197C11.7565 1.92197 11.8678 1.96805 11.9498 2.05007ZM3.90594 10.0939C3.98796 10.176 4.03404 10.2872 4.03404 10.4033C4.03404 10.5193 3.98796 10.6305 3.90594 10.7126L2.66869 11.9498C2.58618 12.0295 2.47567 12.0736 2.36095 12.0726C2.24624 12.0716 2.13651 12.0256 2.0554 11.9445C1.97428 11.8634 1.92827 11.7536 1.92727 11.6389C1.92628 11.5242 1.97037 11.4137 2.05007 11.3312L3.28732 10.0939C3.36936 10.0119 3.48062 9.96585 3.59663 9.96585C3.71264 9.96585 3.8239 10.0119 3.90594 10.0939ZM11.9498 11.9498C11.8678 12.0318 11.7565 12.0779 11.6405 12.0779C11.5245 12.0779 11.4132 12.0318 11.3312 11.9498L10.0939 10.7126C10.0142 10.6301 9.97015 10.5195 9.97115 10.4048C9.97215 10.2901 10.0182 10.1804 10.0993 10.0993C10.1804 10.0182 10.2901 9.97215 10.4048 9.97115C10.5195 9.97015 10.6301 10.0142 10.7126 10.0939L11.9498 11.3312C12.0318 11.4132 12.0779 11.5245 12.0779 11.6405C12.0779 11.7565 12.0318 11.8678 11.9498 11.9498ZM3.90594 3.90682C3.8239 3.98884 3.71264 4.03491 3.59663 4.03491C3.48062 4.03491 3.36936 3.98884 3.28732 3.90682L2.05007 2.66869C2.00828 2.62833 1.97495 2.58006 1.95202 2.52668C1.92909 2.4733 1.91703 2.4159 1.91652 2.35781C1.91602 2.29971 1.92709 2.2421 1.94908 2.18834C1.97108 2.13457 2.00357 2.08572 2.04464 2.04464C2.08572 2.00357 2.13457 1.97108 2.18834 1.94908C2.2421 1.92709 2.29971 1.91602 2.35781 1.91652C2.4159 1.91703 2.4733 1.92909 2.52668 1.95202C2.58006 1.97495 2.62833 2.00828 2.66869 2.05007L3.90594 3.28732C3.94669 3.32796 3.97901 3.37624 4.00107 3.42939C4.02312 3.48254 4.03447 3.53952 4.03447 3.59707C4.03447 3.65461 4.02312 3.7116 4.00107 3.76475C3.97901 3.8179 3.94669 3.86618 3.90594 3.90682Z" fill="black"/>
</svg>
