<svg width="102" height="14" viewBox="0 0 102 14" fill="none" xmlns="http://www.w3.org/2000/svg">
<path d="M31.2632 7H33V14H15.6316V7H13.8947V14H0V7H6.94737V0H31.2632V7Z" fill="black"/>
<path d="M48.1035 0C49.5652 0 50.7265 0.382722 51.5877 1.14734C52.455 1.91196 52.9102 2.95544 52.9526 4.27836H50.9965C50.948 3.49553 50.6637 2.88175 50.1421 2.43876C49.6207 1.98987 48.932 1.76595 48.0772 1.76581C47.2586 1.76581 46.5882 1.96365 46.0667 2.35793C45.5451 2.74631 45.2842 3.24728 45.2842 3.86019C45.2844 4.35134 45.4843 4.75091 45.8842 5.06024C46.2844 5.36357 46.948 5.62817 47.8754 5.85266L49.3404 6.1988C50.6989 6.52042 51.701 6.98527 52.3439 7.59212C52.9924 8.19889 53.3158 8.98818 53.3158 9.95884C53.3157 10.7717 53.1078 11.4817 52.6895 12.0884C52.2711 12.6951 51.6825 13.1655 50.9246 13.4992C50.1664 13.833 49.2741 14 48.2491 14C46.6242 14 45.3417 13.5906 44.4018 12.7718C43.4677 11.9465 43 10.8164 43 9.38429H45.0193C45.0254 10.2764 45.3114 10.975 45.8754 11.4787C46.4455 11.9821 47.2366 12.2342 48.2491 12.2342C49.171 12.2342 49.9077 12.0392 50.4596 11.6509C51.0176 11.2564 51.2964 10.7291 51.2965 10.0678C51.2965 9.54596 51.0967 9.12432 50.6965 8.80271C50.3023 8.47501 49.6348 8.19793 48.6947 7.97339L47.2123 7.61847C45.8417 7.29081 44.8413 6.83576 44.2105 6.25326C43.586 5.66476 43.2738 4.90064 43.2737 3.96034C43.2737 3.16537 43.4734 2.46946 43.8737 1.87475C44.2739 1.28035 44.8348 0.819575 45.5561 0.491968C46.2839 0.164297 47.1332 2.50711e-05 48.1035 0Z" fill="black"/>
<path d="M77.8544 9.92194C77.8544 10.6926 78.0388 11.2757 78.4088 11.6702C78.7787 12.0585 79.2978 12.2518 79.9649 12.2518C80.6138 12.2517 81.159 12.0513 81.6018 11.6509C82.0505 11.2444 82.2753 10.5958 82.2754 9.70407V4.16943H84.1947V13.7821H82.3123V12.3343C81.6574 13.4265 80.6899 13.9717 79.4105 13.9719C78.7555 13.9719 78.1627 13.8301 77.6351 13.5449C77.1137 13.2537 76.6987 12.8247 76.3895 12.2605C76.0865 11.6964 75.9352 10.996 75.9351 10.1591V4.16943H77.8544V9.92194Z" fill="black"/>
<path fill-rule="evenodd" clip-rule="evenodd" d="M102 13.7821H100.118V12.3168H100.098C99.777 12.8743 99.356 13.2896 98.8351 13.5625C98.3197 13.8355 97.749 13.9718 97.1246 13.9719C96.2877 13.9719 95.5562 13.7633 94.9316 13.3446C94.3069 12.9198 93.8211 12.334 93.4754 11.5876C93.1298 10.8352 92.9579 9.96396 92.9579 8.9749C92.9579 7.98626 93.13 7.11888 93.4754 6.37274C93.8271 5.62042 94.3159 5.03442 94.9404 4.61571C95.5648 4.19106 96.2895 3.97805 97.114 3.97791C97.7386 3.97791 98.3091 4.10889 98.8246 4.36973C99.34 4.63063 99.7539 5.0271 100.063 5.56099H100.081V0.217871H102V13.7821ZM97.5158 5.626C96.7395 5.626 96.108 5.91396 95.6228 6.49046C95.1438 7.06083 94.9036 7.88892 94.9035 8.9749C94.9035 10.0612 95.1437 10.8907 95.6228 11.4611C96.108 12.0312 96.7397 12.3168 97.5158 12.3168C98.3343 12.3166 98.9869 12.0116 99.4719 11.4049C99.9627 10.7921 100.209 9.98178 100.209 8.9749C100.209 7.96189 99.9629 7.15166 99.4719 6.54493C98.9869 5.93218 98.3343 5.62617 97.5158 5.626Z" fill="black"/>
<path d="M61.5228 11.3873C61.8806 11.3873 62.182 11.5111 62.4246 11.7598C62.6731 12.0084 62.7963 12.3095 62.7965 12.6611C62.7965 13.0189 62.6728 13.3226 62.4246 13.5713C62.182 13.814 61.8806 13.9367 61.5228 13.9367C61.1713 13.9366 60.8713 13.8139 60.6228 13.5713C60.3804 13.3225 60.2596 13.019 60.2596 12.6611C60.2598 12.3095 60.3804 12.0084 60.6228 11.7598C60.8712 11.5114 61.1715 11.3874 61.5228 11.3873Z" fill="black"/>
<path d="M57.393 4.16943H59.3404V5.75251H57.393V11.2415C57.393 11.5993 57.4652 11.8486 57.6105 11.9882C57.756 12.1277 58.0201 12.1972 58.4018 12.1973H59.3404V13.7821H58.1298C56.3528 13.7821 55.4632 13.0167 55.4632 11.4875V5.75251H53.7719V4.16943H55.4632V1.54794H57.393V4.16943Z" fill="black"/>
<path fill-rule="evenodd" clip-rule="evenodd" d="M69.593 0.217871C70.9879 0.217871 72.0746 0.543698 72.8509 1.19302C73.6327 1.83616 74.0245 2.70061 74.0246 3.7864C74.0246 4.56316 73.8204 5.195 73.414 5.68047C73.0138 6.16577 72.4586 6.51803 71.7491 6.73645V6.75402C72.5376 6.86325 73.2023 7.18463 73.7421 7.71862C74.288 8.25265 74.5614 9.00274 74.5614 9.96762C74.5614 11.1204 74.1574 12.0459 73.3509 12.7437C72.5503 13.4355 71.3485 13.7821 69.7474 13.7821H64.5263V0.217871H69.593ZM66.5281 12.0796H69.6211C70.5427 12.0795 71.2519 11.8999 71.7491 11.5419C72.2524 11.1779 72.5051 10.6504 72.5053 9.95884C72.5053 9.27319 72.2596 8.72882 71.7684 8.32831C71.2832 7.9278 70.5906 7.72741 69.693 7.72741H66.5281V12.0796ZM66.5281 6.06175H69.5667C70.3366 6.06164 70.9362 5.87655 71.3667 5.50653C71.8034 5.13635 72.0228 4.63267 72.0228 3.99548C72.0227 3.35857 71.8032 2.8545 71.3667 2.48444C70.9362 2.10868 70.3362 1.92055 69.5667 1.92043H66.5281V6.06175Z" fill="black"/>
<path d="M87.907 13.7821H85.9877V4.16943H87.907V13.7821Z" fill="black"/>
<path d="M91.6281 13.7821H89.7088V0.217871H91.6281V13.7821Z" fill="black"/>
<path d="M86.9439 0.154618C87.2831 0.154804 87.5707 0.2704 87.807 0.500753C88.0436 0.725286 88.1614 1.00509 88.1614 1.33886C88.1612 1.66621 88.0434 1.94478 87.807 2.1752C87.5707 2.39955 87.2831 2.51237 86.9439 2.51255C86.6042 2.51255 86.3155 2.39973 86.0789 2.1752C85.8487 1.94479 85.7335 1.66618 85.7333 1.33886C85.7333 1.00509 85.8485 0.725286 86.0789 0.500753C86.3155 0.270177 86.6042 0.154618 86.9439 0.154618Z" fill="black"/>
</svg>
