<svg width="39" height="20" viewBox="0 0 39 20" fill="none" xmlns="http://www.w3.org/2000/svg">
<path d="M29 0C34.5228 0 39 4.47715 39 10C39 15.3502 34.7983 19.7195 29.5146 19.9873L29 20H10L9.48535 19.9873C4.20167 19.7195 0 15.3502 0 10C0 4.47715 4.47715 3.06022e-07 10 0H29ZM10 1C5.02944 1 1 5.02944 1 10C1 14.9706 5.02944 19 10 19H29C33.9706 19 38 14.9706 38 10C38 5.02944 33.9706 1 29 1H10ZM28.498 5C29.2295 5.00008 29.857 5.19791 30.3799 5.59277C30.9027 5.98455 31.3031 6.55335 31.5801 7.29883C31.8602 8.04119 32 8.93839 32 9.99023C32 11.0486 31.861 11.9524 31.584 12.7012C31.3069 13.4468 30.9068 14.0172 30.3838 14.4121C29.8609 14.8037 29.2325 14.9999 28.498 15C27.7602 14.9968 27.1295 14.799 26.6064 14.4072C26.0835 14.0154 25.6833 13.4451 25.4062 12.6963C25.1293 11.9475 24.9902 11.0454 24.9902 9.99023C24.9903 8.93826 25.1292 8.03952 25.4062 7.29395C25.6864 6.54829 26.0883 5.97968 26.6113 5.58789C27.1374 5.19616 27.7665 5 28.498 5ZM10.792 14.8389H9.34473V6.60156H9.28809L7 8.11816V6.71582L9.38672 5.13281H10.792V14.8389ZM20.1904 5C20.791 5.00006 21.3199 5.12207 21.7773 5.36523C22.2381 5.60534 22.5981 5.93357 22.8564 6.35059C23.1148 6.76449 23.2441 7.23258 23.2441 7.75391C23.2441 8.11397 23.1768 8.46627 23.043 8.81055C22.9122 9.15489 22.6833 9.53861 22.3564 9.96191C22.0296 10.3821 21.5753 10.8929 20.9932 11.4932L19.0928 13.5117V13.583H23.3984V14.8389H17.1035V13.7773L20.3398 10.374C20.6852 10.0046 20.9703 9.68123 21.1943 9.40332C21.4216 9.12212 21.591 8.85433 21.7031 8.60156C21.8151 8.34889 21.8711 8.08014 21.8711 7.7959C21.871 7.47376 21.7959 7.19565 21.6465 6.96191C21.4971 6.72511 21.2934 6.54331 21.0352 6.41699C20.7768 6.2875 20.4858 6.22268 20.1621 6.22266C19.8198 6.22266 19.5208 6.29352 19.2656 6.43555C19.0103 6.57773 18.8137 6.779 18.6768 7.03809C18.5398 7.29712 18.4717 7.60078 18.4717 7.94824H17.0938C17.0938 7.35758 17.2275 6.84069 17.4951 6.39844C17.7628 5.95613 18.1307 5.6134 18.5977 5.37012C19.0646 5.12367 19.5958 5 20.1904 5ZM28.498 6.24219C27.8536 6.24219 27.3469 6.56443 26.9795 7.20898C26.6124 7.85346 26.427 8.78059 26.4238 9.99023C26.4238 10.7991 26.5069 11.4837 26.6719 12.043C26.8399 12.5986 27.0778 13.0202 27.3857 13.3076C27.694 13.592 28.0653 13.7344 28.498 13.7344C29.1454 13.7342 29.6515 13.4137 30.0156 12.7725C30.3829 12.1311 30.5664 11.2034 30.5664 9.99023C30.5664 9.18487 30.4825 8.50418 30.3145 7.94824C30.1495 7.389 29.9109 6.96525 29.5996 6.67773C29.2915 6.38718 28.9244 6.24228 28.498 6.24219ZM14.3174 11.7441C14.5727 11.7441 14.7929 11.837 14.9766 12.0234C15.1602 12.2067 15.252 12.4285 15.252 12.6875C15.2519 12.8612 15.2082 13.0208 15.1211 13.166C15.037 13.3082 14.9243 13.4215 14.7842 13.5068C14.6441 13.5921 14.4885 13.6348 14.3174 13.6348C14.0622 13.6347 13.8428 13.5435 13.6592 13.3604C13.4756 13.174 13.3839 12.9496 13.3838 12.6875C13.3838 12.4284 13.4755 12.2067 13.6592 12.0234C13.8428 11.8372 14.0623 11.7442 14.3174 11.7441ZM14.3174 6.88184C14.5727 6.88184 14.7929 6.97472 14.9766 7.16113C15.16 7.34424 15.2519 7.56543 15.252 7.82422C15.252 7.99799 15.2083 8.15837 15.1211 8.30371C15.037 8.4458 14.9242 8.55926 14.7842 8.64453C14.6442 8.72971 14.4885 8.77246 14.3174 8.77246C14.0623 8.7724 13.8428 8.68111 13.6592 8.49805C13.4755 8.31163 13.3838 8.08646 13.3838 7.82422C13.3839 7.56532 13.4756 7.34429 13.6592 7.16113C13.8428 6.97478 14.0622 6.8819 14.3174 6.88184Z" fill="white"/>
</svg>
