<svg width="32" height="20" viewBox="0 0 32 20" fill="none" xmlns="http://www.w3.org/2000/svg">
<path d="M12.866 5V15H11.3901V6.51367H11.3329L9 8.07617V6.63086L11.4329 5H12.866Z" fill="#002BFF"/>
<path d="M16.4606 13.7598C16.2004 13.7598 15.9766 13.6654 15.7893 13.4766C15.6021 13.2845 15.5084 13.0534 15.5084 12.7832C15.5084 12.5163 15.6021 12.2884 15.7893 12.0996C15.9766 11.9076 16.2004 11.8115 16.4606 11.8115C16.7209 11.8115 16.9447 11.9076 17.132 12.0996C17.3192 12.2884 17.4129 12.5163 17.4129 12.7832C17.4129 12.9622 17.3684 13.1266 17.2795 13.2764C17.1938 13.4229 17.0796 13.54 16.9367 13.6279C16.7939 13.7158 16.6352 13.7598 16.4606 13.7598ZM16.4606 8.75C16.2004 8.75 15.9766 8.6556 15.7893 8.4668C15.6021 8.27474 15.5084 8.04362 15.5084 7.77344C15.5084 7.50651 15.6021 7.27865 15.7893 7.08984C15.9766 6.89779 16.2004 6.80176 16.4606 6.80176C16.7209 6.80176 16.9447 6.89779 17.132 7.08984C17.3192 7.27865 17.4129 7.50651 17.4129 7.77344C17.4129 7.95247 17.3684 8.11686 17.2795 8.2666C17.1938 8.41309 17.0796 8.53027 16.9367 8.61816C16.7939 8.70605 16.6352 8.75 16.4606 8.75Z" fill="#002BFF"/>
<path d="M23 5V15H21.5241V6.51367H21.4669L19.134 8.07617V6.63086L21.5669 5H23Z" fill="#002BFF"/>
<path d="M22 19V20H10V19H22ZM31 10C31 5.02944 26.9706 1 22 1H10C5.02944 1 1 5.02944 1 10C1 14.9706 5.02944 19 10 19V20C4.47715 20 0 15.5228 0 10C0 4.47715 4.47715 0 10 0H22C27.5228 0 32 4.47715 32 10C32 15.5228 27.5228 20 22 20V19C26.9706 19 31 14.9706 31 10Z" fill="#002BFF"/>
</svg>
